<?xml version="1.0" standalone="no"?>
<!DOCTYPE svg PUBLIC "-//W3C//DTD SVG 20010904//EN"
 "http://www.w3.org/TR/2001/REC-SVG-20010904/DTD/svg10.dtd">
<svg version="1.0" xmlns="http://www.w3.org/2000/svg"
 width="192.000000pt" height="192.000000pt" viewBox="0 0 192.000000 192.000000"
 preserveAspectRatio="xMidYMid meet">

<g transform="translate(0.000000,192.000000) scale(0.100000,-0.100000)"
fill="#000000" stroke="none">
<path d="M0 960 l0 -960 960 0 960 0 0 960 0 960 -960 0 -960 0 0 -960z m645
415 l0 -110 -135 -5 -135 -5 0 -120 0 -120 113 -3 112 -3 0 -104 0 -104 -112
-3 -113 -3 -3 -223 -2 -222 -65 0 -65 0 0 563 c0 310 3 567 7 571 4 3 95 5
202 4 l196 -3 0 -110z m433 10 c12 -55 29 -134 38 -175 9 -41 22 -102 29 -135
7 -33 20 -91 28 -130 8 -38 27 -124 41 -190 62 -278 86 -387 86 -396 0 -6 -31
-9 -72 -7 l-72 3 -21 101 c-32 149 -16 135 -152 132 l-118 -3 -18 -80 c-11
-44 -24 -97 -29 -117 l-9 -38 -70 0 -70 0 6 38 c7 36 17 83 49 227 19 84 63
286 81 370 7 33 20 94 29 135 9 41 23 104 31 140 8 36 20 90 25 120 6 30 16
68 22 83 10 27 13 28 77 25 l66 -3 23 -100z m297 95 c3 -5 13 -44 22 -87 8
-43 21 -105 28 -138 7 -33 21 -96 30 -140 10 -44 23 -107 30 -140 7 -33 21
-96 29 -140 35 -171 45 -185 61 -85 4 25 13 72 20 105 14 63 32 145 60 280 19
90 35 163 61 278 l17 78 66 -3 66 -3 -2 -39 c-2 -22 -15 -92 -29 -155 -15 -64
-32 -143 -39 -176 -31 -146 -46 -214 -60 -275 -8 -36 -21 -94 -29 -130 -8 -36
-26 -121 -40 -190 -39 -179 -32 -170 -114 -170 l-69 0 -12 42 c-6 24 -16 66
-21 93 -6 28 -17 79 -25 115 -8 36 -22 99 -31 140 -25 116 -41 189 -58 265 -8
39 -25 113 -37 165 -11 52 -27 124 -36 160 -8 36 -17 86 -20 113 l-6 47 66 0
c36 0 69 -4 72 -10z"/>
<path d="M976 1120 c-37 -159 -48 -214 -53 -262 l-6 -58 66 0 c36 0 68 3 71 8
2 4 1 25 -4 47 -31 156 -52 248 -59 267 l-9 23 -6 -25z"/>
</g>
</svg>
